<svg width="512" height="512" viewBox="0 0 512 512" fill="none" xmlns="http://www.w3.org/2000/svg">
    <rect width="512" height="512" rx="64" fill="#3B82F6"/>
    <path d="M128 192H384V416C384 433.673 369.673 448 352 448H160C142.327 448 128 433.673 128 416V192Z" fill="white"/>
    <path d="M384 192V128C384 110.327 369.673 96 352 96H160C142.327 96 128 110.327 128 128V192H384Z" fill="#E5E7EB"/>
    <path d="M256 128C269.255 128 280 138.745 280 152C280 165.255 269.255 176 256 176C242.745 176 232 165.255 232 152C232 138.745 242.745 128 256 128Z" fill="#3B82F6"/>
    <rect x="160" y="224" width="192" height="16" rx="8" fill="#E5E7EB"/>
    <rect x="160" y="256" width="128" height="16" rx="8" fill="#E5E7EB"/>
    <rect x="160" y="288" width="160" height="16" rx="8" fill="#E5E7EB"/>
    <rect x="160" y="320" width="96" height="16" rx="8" fill="#E5E7EB"/>
    <rect x="160" y="352" width="144" height="16" rx="8" fill="#E5E7EB"/>
    <rect x="160" y="384" width="112" height="16" rx="8" fill="#E5E7EB"/>
</svg>
